<svg width="40" height="40" viewBox="0 0 40 40" fill="none" xmlns="http://www.w3.org/2000/svg">
<mask id="mask0_264_5521" style="mask-type:alpha" maskUnits="userSpaceOnUse" x="0" y="0" width="40" height="40">
<rect width="40" height="40" fill="#D9D9D9"/>
</mask>
<g mask="url(#mask0_264_5521)">
<path d="M18.6112 33.8889V26.6668H15C12.6944 26.6668 10.7291 25.8543 9.10413 24.2293C7.47913 22.6043 6.66663 20.6391 6.66663 18.3335C6.66663 16.6668 7.12496 15.1321 8.04163 13.7293C8.95829 12.3266 10.1944 11.3057 11.75 10.6668C12 8.5835 12.9097 6.84044 14.4791 5.43766C16.0486 4.03489 17.8888 3.3335 20 3.3335C22.1111 3.3335 23.9513 4.03489 25.5208 5.43766C27.0902 6.84044 28 8.5835 28.25 10.6668C29.8055 11.3057 31.0416 12.3266 31.9583 13.7293C32.875 15.1321 33.3333 16.6668 33.3333 18.3335C33.3333 20.6391 32.5208 22.6043 30.8958 24.2293C29.2708 25.8543 27.3055 26.6668 25 26.6668H21.3887V33.8889H29.722C30.1157 33.8889 30.4455 34.0225 30.7116 34.2898C30.978 34.557 31.1112 34.8879 31.1112 35.2827C31.1112 35.6777 30.978 36.0071 30.7116 36.271C30.4455 36.5349 30.1157 36.6668 29.722 36.6668H10.5554C10.162 36.6668 9.83218 36.5332 9.56579 36.266C9.29968 35.9991 9.16663 35.6681 9.16663 35.2731C9.16663 34.8781 9.29968 34.5486 9.56579 34.2847C9.83218 34.0209 10.162 33.8889 10.5554 33.8889H18.6112Z" fill="#F8FAFC"/>
</g>
</svg>
