<svg width="40" height="40" viewBox="0 0 40 40" fill="none" xmlns="http://www.w3.org/2000/svg">
<mask id="mask0_264_5518" style="mask-type:alpha" maskUnits="userSpaceOnUse" x="0" y="0" width="40" height="40">
<rect width="40" height="40" fill="#D9D9D9"/>
</mask>
<g mask="url(#mask0_264_5518)">
<path d="M17.9167 21.8471L16.1388 19.2221C15.9999 19.0371 15.838 18.889 15.653 18.7779C15.4677 18.6668 15.2546 18.6112 15.0138 18.6112H5.25004C5.00004 18.6112 4.76393 18.544 4.54171 18.4096C4.31949 18.2754 4.16212 18.0833 4.06962 17.8333C3.81018 17.1575 3.62268 16.5024 3.50712 15.8679C3.39129 15.2338 3.33337 14.5833 3.33337 13.9167C3.33337 11.3797 4.18518 9.25931 5.88879 7.55542C7.59268 5.85181 9.70379 5 12.2221 5C13.7593 5 15.1946 5.35181 16.528 6.05542C17.8613 6.75931 19.0187 7.76861 20 9.08333C21.0925 7.71306 22.2916 6.68986 23.5971 6.01375C24.9027 5.33792 26.2963 5 27.778 5C30.2963 5 32.4074 5.85181 34.1113 7.55542C35.8149 9.25931 36.6667 11.3797 36.6667 13.9167C36.6667 14.5833 36.6088 15.2338 36.493 15.8679C36.3774 16.5024 36.1899 17.1575 35.9305 17.8333C35.8471 18.0833 35.6921 18.2754 35.4655 18.4096C35.2385 18.544 35 18.6112 34.75 18.6112H25.7917L22.8334 14.25C22.6853 14.0369 22.5024 13.8818 22.2846 13.7846C22.0671 13.6874 21.8334 13.6388 21.5834 13.6388C21.2964 13.6388 21.0395 13.7244 20.8125 13.8958C20.5856 14.0672 20.4259 14.2918 20.3334 14.5696L17.9167 21.8471ZM20 34.5971C19.6667 34.5971 19.338 34.5415 19.0138 34.4304C18.6899 34.3193 18.403 34.1388 18.153 33.8888C15.3752 31.3704 13.051 29.1738 11.1805 27.2988C9.31018 25.4238 7.80101 23.7408 6.65296 22.25C6.50462 22.0647 6.48837 21.8749 6.60421 21.6804C6.72004 21.486 6.88435 21.3888 7.09712 21.3888H14.1805L17.1388 25.7779C17.2871 25.9907 17.4746 26.1457 17.7013 26.2429C17.9282 26.3401 18.1667 26.3887 18.4167 26.3887C18.7037 26.3887 18.956 26.3032 19.1738 26.1321C19.3913 25.9607 19.5463 25.7361 19.6388 25.4583L22.0834 18.1667L23.8471 20.7779C23.986 20.9629 24.1527 21.111 24.3471 21.2221C24.5416 21.3332 24.7592 21.3888 25 21.3888H32.9305C33.1435 21.3888 33.3032 21.486 33.4096 21.6804C33.5163 21.8749 33.4955 22.0647 33.3471 22.25C32.1991 23.7408 30.6899 25.4238 28.8196 27.2988C26.9491 29.1738 24.6249 31.3704 21.8471 33.8888C21.5971 34.1388 21.3102 34.3193 20.9863 34.4304C20.6621 34.5415 20.3334 34.5971 20 34.5971Z" fill="#F8FAFC"/>
</g>
</svg>
