<svg width="40" height="40" viewBox="0 0 40 40" fill="none" xmlns="http://www.w3.org/2000/svg">
<mask id="mask0_264_5517" style="mask-type:alpha" maskUnits="userSpaceOnUse" x="0" y="0" width="40" height="40">
<rect width="40" height="40" fill="#D9D9D9"/>
</mask>
<g mask="url(#mask0_264_5517)">
<path d="M20 21.9446L23.4862 24.5971C23.6343 24.699 23.7777 24.7014 23.9166 24.6042C24.0555 24.5069 24.0972 24.3796 24.0416 24.2221L22.6112 19.8888L26.2637 17.1946C26.4026 17.0926 26.4443 16.9607 26.3887 16.7987C26.3332 16.6365 26.2268 16.5554 26.0695 16.5554H21.6666L20.3333 12.2638C20.2777 12.1065 20.1666 12.0279 20 12.0279C19.8333 12.0279 19.7222 12.1065 19.6666 12.2638L18.3333 16.5554H13.9304C13.7732 16.5554 13.6644 16.6365 13.6041 16.7987C13.5438 16.9607 13.5832 17.0926 13.722 17.1946L17.3054 19.8888L15.847 24.2363C15.7915 24.3935 15.8332 24.5254 15.972 24.6321C16.1109 24.7385 16.2545 24.7407 16.4029 24.6388L20 21.9446ZM20 36.5C19.8425 36.5 19.6943 36.4861 19.5554 36.4583C19.4165 36.4306 19.273 36.3889 19.125 36.3333C15.3008 35.0464 12.2684 32.7154 10.0279 29.3404C7.78704 25.9654 6.66663 22.2871 6.66663 18.3054V10.2362C6.66663 9.65292 6.83565 9.12514 7.17371 8.65292C7.51149 8.18069 7.94427 7.83806 8.47204 7.625L19.0279 3.68042C19.3612 3.56014 19.6852 3.5 20 3.5C20.3147 3.5 20.6387 3.56014 20.972 3.68042L31.5279 7.625C32.0557 7.83806 32.4884 8.18069 32.8262 8.65292C33.1643 9.12514 33.3333 9.65292 33.3333 10.2362V18.3054C33.3333 22.2871 32.2129 25.9654 29.972 29.3404C27.7315 32.7154 24.6991 35.0464 20.875 36.3333C20.7269 36.3889 20.5834 36.4306 20.4445 36.4583C20.3057 36.4861 20.1575 36.5 20 36.5Z" fill="#F8FAFC"/>
</g>
</svg>
