<svg width="40" height="40" viewBox="0 0 40 40" fill="none" xmlns="http://www.w3.org/2000/svg">
<mask id="mask0_264_5523" style="mask-type:alpha" maskUnits="userSpaceOnUse" x="0" y="0" width="40" height="40">
<rect width="40" height="40" fill="#D9D9D9"/>
</mask>
<g mask="url(#mask0_264_5523)">
<path d="M20 36.6668C17.7131 36.6668 15.5557 36.2293 13.528 35.3543C11.5002 34.4793 9.73157 33.2872 8.22212 31.7781C6.71296 30.2686 5.52087 28.5 4.64587 26.4722C3.77087 24.4445 3.33337 22.2871 3.33337 20.0002C3.33337 17.6946 3.77087 15.5279 4.64587 13.5002C5.52087 11.4724 6.71296 9.7085 8.22212 8.2085C9.73157 6.7085 11.5002 5.521 13.528 4.646C15.5557 3.771 17.7131 3.3335 20 3.3335C22.3056 3.3335 24.4723 3.771 26.5 4.646C28.5278 5.521 30.2917 6.7085 31.7917 8.2085C33.2917 9.7085 34.4792 11.4724 35.3542 13.5002C36.2292 15.5279 36.6667 17.6946 36.6667 20.0002C36.6667 22.2871 36.2292 24.4445 35.3542 26.4722C34.4792 28.5 33.2917 30.2686 31.7917 31.7781C30.2917 33.2872 28.5278 34.4793 26.5 35.3543C24.4723 36.2293 22.3056 36.6668 20 36.6668ZM19.9584 31.8614C20.2917 31.8614 20.581 31.7341 20.8263 31.4793C21.0718 31.2246 21.1946 30.9306 21.1946 30.5972V29.7222C22.7685 29.5095 24.0416 28.9539 25.0138 28.0556C25.986 27.1575 26.4721 25.9539 26.4721 24.4447C26.4721 23.0928 26.0971 21.9678 25.3471 21.0697C24.5971 20.1714 23.2407 19.3889 21.278 18.7222C19.5557 18.1484 18.3705 17.6021 17.7221 17.0835C17.0741 16.5649 16.75 15.8797 16.75 15.0281C16.75 14.2131 17.0441 13.5742 17.6321 13.1114C18.2199 12.6484 19.037 12.4168 20.0834 12.4168C20.7131 12.4168 21.2732 12.5325 21.7638 12.7639C22.2546 12.9956 22.676 13.3336 23.028 13.7781C23.2502 14.0372 23.5117 14.2154 23.8125 14.3127C24.1134 14.4099 24.3981 14.3891 24.6667 14.2502C25.0092 14.1021 25.2384 13.8591 25.3542 13.521C25.47 13.1829 25.426 12.875 25.2221 12.5972C24.7594 11.94 24.1923 11.4077 23.5209 11.0002C22.8495 10.5927 22.1018 10.352 21.278 10.2781V9.40308C21.278 9.06975 21.1552 8.7803 20.9096 8.53475C20.6643 8.28947 20.375 8.16683 20.0417 8.16683C19.7084 8.16683 19.4143 8.28947 19.1596 8.53475C18.9052 8.7803 18.778 9.06975 18.778 9.40308V10.2781C17.3705 10.5095 16.2639 11.0557 15.4584 11.9168C14.6528 12.7779 14.25 13.815 14.25 15.0281C14.25 16.3706 14.6135 17.4446 15.3405 18.2502C16.0671 19.0557 17.3425 19.7964 19.1667 20.4722C21.0648 21.1853 22.3402 21.8103 22.993 22.3472C23.6457 22.8845 23.9721 23.5836 23.9721 24.4447C23.9721 25.3614 23.6134 26.0997 22.8959 26.6597C22.1784 27.22 21.3057 27.5002 20.278 27.5002C19.426 27.5002 18.6482 27.2942 17.9446 26.8822C17.2407 26.47 16.6852 25.8798 16.278 25.1114C16.1113 24.8336 15.8891 24.6299 15.6113 24.5002C15.3335 24.3704 15.051 24.3566 14.7638 24.4585C14.3935 24.5974 14.1366 24.8289 13.993 25.1531C13.8496 25.477 13.8705 25.801 14.0555 26.1252C14.5741 27.051 15.213 27.8034 15.9721 28.3823C16.7316 28.9609 17.6391 29.3797 18.6946 29.6389V30.6252C18.6946 30.9585 18.8218 31.2478 19.0763 31.4931C19.331 31.7386 19.625 31.8614 19.9584 31.8614Z" fill="#F8FAFC"/>
</g>
</svg>
