<svg width="40" height="40" viewBox="0 0 40 40" fill="none" xmlns="http://www.w3.org/2000/svg">
<mask id="mask0_264_5519" style="mask-type:alpha" maskUnits="userSpaceOnUse" x="0" y="0" width="40" height="40">
<rect width="40" height="40" fill="#D9D9D9"/>
</mask>
<g mask="url(#mask0_264_5519)">
<path d="M6.66663 23.3335C6.66663 20.1391 7.63885 17.0512 9.58329 14.0698C11.5277 11.0881 14.199 8.52325 17.597 6.3752C18.1157 6.0327 18.6458 6.02117 19.1875 6.34061C19.7291 6.66006 20 7.13922 20 7.77811V10.5002C20 11.4446 20.3263 12.2363 20.9791 12.8752C21.6319 13.5141 22.4305 13.8335 23.375 13.8335C23.8658 13.8335 24.3265 13.7294 24.757 13.521C25.1876 13.3127 25.5695 13.0048 25.9029 12.5973C26.1251 12.3381 26.3866 12.1645 26.6875 12.0764C26.9883 11.9887 27.273 12.0373 27.5416 12.2223C29.3472 13.4723 30.7638 15.0788 31.7916 17.0419C32.8194 19.0049 33.3333 21.1021 33.3333 23.3335C33.3333 25.9077 32.6805 28.2387 31.375 30.3264C30.0694 32.4145 28.3518 34.0141 26.222 35.1252C26.8054 34.4216 27.2568 33.6414 27.5762 32.7848C27.8957 31.9284 28.0554 31.028 28.0554 30.0835C28.0554 29.0094 27.8563 27.9978 27.4583 27.0489C27.0602 26.0998 26.4815 25.2456 25.722 24.4864L20 18.8889L14.3195 24.4864C13.5323 25.2548 12.9397 26.1112 12.5416 27.0556C12.1436 28.0001 11.9445 29.0094 11.9445 30.0835C11.9445 31.028 12.1043 31.9284 12.4237 32.7848C12.7432 33.6414 13.1945 34.4216 13.7779 35.1252C11.6482 34.0141 9.93051 32.4145 8.62496 30.3264C7.3194 28.2387 6.66663 25.9077 6.66663 23.3335ZM20 22.7781L23.7362 26.4306C24.2268 26.9214 24.6063 27.477 24.875 28.0973C25.1436 28.7178 25.2779 29.3799 25.2779 30.0835C25.2779 31.5188 24.764 32.7434 23.7362 33.7573C22.7084 34.7712 21.463 35.2781 20 35.2781C18.5369 35.2781 17.2915 34.7712 16.2637 33.7573C15.2359 32.7434 14.722 31.5188 14.722 30.0835C14.722 29.3891 14.8518 28.7294 15.1112 28.1044C15.3704 27.4794 15.7545 26.9214 16.2637 26.4306L20 22.7781Z" fill="#F8FAFC"/>
</g>
</svg>
