<svg width="40" height="40" viewBox="0 0 40 40" fill="none" xmlns="http://www.w3.org/2000/svg">
<mask id="mask0_264_5516" style="mask-type:alpha" maskUnits="userSpaceOnUse" x="0" y="0" width="40" height="40">
<rect width="40" height="40" fill="#D9D9D9"/>
</mask>
<g mask="url(#mask0_264_5516)">
<path d="M11.5279 36.6667C8.80565 36.6667 6.48149 35.6899 4.55538 33.7363C2.62954 31.7824 1.66663 29.4721 1.66663 26.8054V18.2779C1.66663 17.514 1.93857 16.86 2.48246 16.3158C3.02663 15.7719 3.68065 15.5 4.44454 15.5H18.5833C19.3472 15.5 20.0011 15.7719 20.545 16.3158C21.0891 16.86 21.3612 17.514 21.3612 18.2779V26.8054C21.3612 29.4721 20.4051 31.7824 18.4929 33.7363C16.5809 35.6899 14.2593 36.6667 11.5279 36.6667ZM8.02788 24C8.43704 24 8.7801 23.8615 9.05704 23.5846C9.33371 23.3079 9.47204 22.9649 9.47204 22.5554C9.47204 22.1463 9.33371 21.8032 9.05704 21.5263C8.7801 21.2496 8.43704 21.1113 8.02788 21.1113C7.61843 21.1113 7.27538 21.2496 6.99871 21.5263C6.72177 21.8032 6.58329 22.1463 6.58329 22.5554C6.58329 22.9649 6.72177 23.3079 6.99871 23.5846C7.27538 23.8615 7.61843 24 8.02788 24ZM15.0554 24C15.4648 24 15.8079 23.8615 16.0845 23.5846C16.3615 23.3079 16.5 22.9649 16.5 22.5554C16.5 22.1463 16.3615 21.8032 16.0845 21.5263C15.8079 21.2496 15.4648 21.1113 15.0554 21.1113C14.6462 21.1113 14.3032 21.2496 14.0262 21.5263C13.7495 21.8032 13.6112 22.1463 13.6112 22.5554C13.6112 22.9649 13.7495 23.3079 14.0262 23.5846C14.3032 23.8615 14.6462 24 15.0554 24ZM38.3333 6.08334V14.8888C38.3333 17.574 37.3773 19.8426 35.4654 21.6946C33.5532 23.5463 31.2313 24.4721 28.5 24.4721C27.9075 24.4721 27.3311 24.4282 26.7708 24.3404C26.2105 24.2524 25.6573 24.1111 25.1112 23.9167C24.6668 23.7592 24.3009 23.4967 24.0137 23.1292C23.7268 22.7617 23.5833 22.3482 23.5833 21.8888V17.4721C23.5833 16.3824 23.2379 15.4317 22.547 14.62C21.8562 13.8086 20.9748 13.4029 19.9029 13.4029C19.5323 13.4029 19.2198 13.2663 18.9654 12.9929C18.7107 12.7199 18.5833 12.3935 18.5833 12.0138V6.08334C18.5833 5.31945 18.8552 4.66556 19.3991 4.12167C19.9433 3.5775 20.5973 3.30542 21.3612 3.30542H35.5554C36.3193 3.30542 36.9733 3.5775 37.5175 4.12167C38.0613 4.66556 38.3333 5.31945 38.3333 6.08334ZM25.0279 12.0554C25.437 12.0554 25.7801 11.9096 26.057 11.6179C26.3337 11.3263 26.472 10.9907 26.472 10.6113C26.472 10.2018 26.3337 9.85875 26.057 9.58209C25.7801 9.30514 25.437 9.16667 25.0279 9.16667C24.6184 9.16667 24.2754 9.30514 23.9987 9.58209C23.7218 9.85875 23.5833 10.2018 23.5833 10.6113C23.5833 10.9907 23.7218 11.3263 23.9987 11.6179C24.2754 11.9096 24.6184 12.0554 25.0279 12.0554ZM32.0279 12.0554C32.437 12.0554 32.7801 11.9096 33.057 11.6179C33.3337 11.3263 33.472 10.9907 33.472 10.6113C33.472 10.2018 33.3337 9.85875 33.057 9.58209C32.7801 9.30514 32.437 9.16667 32.0279 9.16667C31.6184 9.16667 31.2754 9.30514 30.9987 9.58209C30.7218 9.85875 30.5833 10.2018 30.5833 10.6113C30.5833 10.9907 30.7218 11.3263 30.9987 11.6179C31.2754 11.9096 31.6184 12.0554 32.0279 12.0554ZM28.5 15C27.6944 15 26.9236 15.1365 26.1875 15.4096C25.4513 15.6829 24.8795 16.1529 24.472 16.8196C24.3148 17.0974 24.3357 17.3635 24.5345 17.6179C24.7337 17.8726 25.0079 18 25.357 18H31.6429C31.992 18 32.2662 17.8726 32.4654 17.6179C32.6643 17.3635 32.6851 17.0974 32.5279 16.8196C32.1204 16.1529 31.5486 15.6829 30.8125 15.4096C30.0763 15.1365 29.3055 15 28.5 15ZM11.5833 30.1946C12.3877 30.1946 13.149 30.0603 13.867 29.7917C14.5854 29.5231 15.1575 29.0647 15.5833 28.4167C15.75 28.145 15.7407 27.8733 15.5554 27.6017C15.3704 27.3303 15.1059 27.1946 14.762 27.1946H8.40454C8.06065 27.1946 7.79621 27.3303 7.61121 27.6017C7.42593 27.8733 7.41663 28.145 7.58329 28.4167C8.00913 29.0647 8.58121 29.5231 9.29954 29.7917C10.0176 30.0603 10.7788 30.1946 11.5833 30.1946Z" fill="#F8FAFC"/>
</g>
</svg>
