<svg width="40" height="40" viewBox="0 0 40 40" fill="none" xmlns="http://www.w3.org/2000/svg">
<mask id="mask0_264_5526" style="mask-type:alpha" maskUnits="userSpaceOnUse" x="0" y="0" width="40" height="40">
<rect width="40" height="40" fill="#D9D9D9"/>
</mask>
<g mask="url(#mask0_264_5526)">
<path d="M28.3333 26.3888C26.9444 26.3888 25.7639 25.9026 24.7917 24.9304C23.8194 23.9582 23.3333 22.7776 23.3333 21.3888C23.3333 19.9999 23.8194 18.8193 24.7917 17.8471C25.7639 16.8749 26.9444 16.3888 28.3333 16.3888C29.7222 16.3888 30.9028 16.8749 31.875 17.8471C32.8472 18.8193 33.3333 19.9999 33.3333 21.3888C33.3333 22.7776 32.8472 23.9582 31.875 24.9304C30.9028 25.9026 29.7222 26.3888 28.3333 26.3888ZM15.5554 33.2221V35H7.77792C7.01403 35 6.36 34.7281 5.81583 34.1842C5.27194 33.64 5 32.986 5 32.2221V7.77792C5 7.01403 5.27194 6.36 5.81583 5.81583C6.36 5.27195 7.01403 5 7.77792 5H32.2221C32.986 5 33.64 5.27195 34.1842 5.81583C34.7281 6.36 35 7.01403 35 7.77792V17.4167C34.2869 16.2222 33.3518 15.2893 32.1946 14.6179C31.0371 13.9468 29.75 13.6112 28.3333 13.6112V12.2221C28.3333 12.0649 28.2801 11.9329 28.1738 11.8263C28.0671 11.7199 27.9351 11.6667 27.7779 11.6667H13.0554C12.6621 11.6667 12.3322 11.8003 12.0658 12.0675C11.7997 12.3344 11.6667 12.6654 11.6667 13.0604C11.6667 13.4554 11.7997 13.7849 12.0658 14.0487C12.3322 14.3126 12.6621 14.4446 13.0554 14.4446H25.0279C24.139 14.8518 23.3474 15.4165 22.6529 16.1388C21.9585 16.861 21.4307 17.6851 21.0696 18.6113H13.0554C12.6621 18.6113 12.3322 18.7447 12.0658 19.0117C11.7997 19.2789 11.6667 19.61 11.6667 20.005C11.6667 20.3997 11.7997 20.729 12.0658 20.9929C12.3322 21.2568 12.6621 21.3888 13.0554 21.3888H20.5554C20.5554 22.1574 20.6689 22.8935 20.8958 23.5971C21.1228 24.301 21.4399 24.9538 21.8471 25.5554H13.0554C12.6621 25.5554 12.3322 25.689 12.0658 25.9563C11.7997 26.2235 11.6667 26.5544 11.6667 26.9492C11.6667 27.3442 11.7997 27.6736 12.0658 27.9375C12.3322 28.2014 12.6621 28.3333 13.0554 28.3333H17.9446C17.1946 28.9167 16.6089 29.6413 16.1875 30.5071C15.7661 31.3726 15.5554 32.2776 15.5554 33.2221ZM19.7221 38.0554C19.3288 38.0554 18.9989 37.9224 18.7325 37.6563C18.4664 37.3901 18.3333 37.0603 18.3333 36.6667V33.2221C18.3333 32.6388 18.4722 32.0901 18.75 31.5763C19.0278 31.0624 19.4167 30.6526 19.9167 30.3471C20.7314 29.8565 21.4213 29.5024 21.9863 29.2846C22.551 29.0671 23.301 28.8565 24.2363 28.6529C24.5263 28.5974 24.8164 28.595 25.1067 28.6458C25.3967 28.6967 25.6343 28.8379 25.8196 29.0696L28.3333 32.25L30.8333 29.0696C31.0231 28.8315 31.2603 28.6886 31.545 28.6408C31.8297 28.5933 32.1203 28.5974 32.4167 28.6529C33.3519 28.8565 34.0974 29.0671 34.6529 29.2846C35.2085 29.5024 35.8936 29.8565 36.7083 30.3471C37.2083 30.6526 37.6042 31.0624 37.8958 31.5763C38.1875 32.0901 38.3333 32.6388 38.3333 33.2221V36.6667C38.3333 37.0603 38.2003 37.3901 37.9342 37.6563C37.6678 37.9224 37.3379 38.0554 36.9446 38.0554H19.7221Z" fill="#F8FAFC"/>
</g>
</svg>
