<svg width="40" height="40" viewBox="0 0 40 40" fill="none" xmlns="http://www.w3.org/2000/svg">
<mask id="mask0_264_5520" style="mask-type:alpha" maskUnits="userSpaceOnUse" x="0" y="0" width="40" height="40">
<rect width="40" height="40" fill="#D9D9D9"/>
</mask>
<g mask="url(#mask0_264_5520)">
<path d="M6.13871 33.3332V34.4444C6.13871 35.0616 5.92232 35.5862 5.48954 36.0182C5.05704 36.4504 4.53163 36.6665 3.91329 36.6665C3.29524 36.6665 2.76621 36.4478 2.32621 36.0103C1.88649 35.5728 1.66663 35.0415 1.66663 34.4165V22.4165C1.66663 22.1362 1.69024 21.8619 1.73746 21.5936C1.78496 21.325 1.86788 21.0622 1.98621 20.8053L5.29163 12.9582C5.45107 12.5626 5.70163 12.2484 6.04329 12.0157C6.38468 11.7829 6.76843 11.6665 7.19454 11.6665H22.8333C23.25 11.6665 23.6319 11.7822 23.9791 12.0136C24.3263 12.2453 24.5787 12.5601 24.7362 12.9582L28.0137 20.8053C28.132 21.0622 28.215 21.325 28.2625 21.5936C28.3097 21.8619 28.3333 22.1362 28.3333 22.4165V34.4444C28.3333 35.0616 28.1169 35.5862 27.6841 36.0182C27.2513 36.4504 26.7259 36.6665 26.1079 36.6665C25.4895 36.6665 24.9605 36.4478 24.5208 36.0103C24.0811 35.5728 23.8612 35.0415 23.8612 34.4165V33.3332H6.13871ZM5.72204 18.8332H24.2916L22.472 14.4444H7.55538L5.72204 18.8332ZM8.91163 28.3053C9.53524 28.3053 10.0623 28.0854 10.4929 27.6457C10.9234 27.2059 11.1387 26.6805 11.1387 26.0694C11.1387 25.4583 10.9223 24.9328 10.4895 24.4928C10.057 24.053 9.53163 23.8332 8.91329 23.8332C8.29524 23.8332 7.76621 24.0519 7.32621 24.4894C6.88649 24.9269 6.66663 25.4582 6.66663 26.0832C6.66663 26.6851 6.88496 27.2059 7.32163 27.6457C7.75802 28.0854 8.28802 28.3053 8.91163 28.3053ZM21.1062 28.3053C21.7298 28.3053 22.2569 28.0854 22.6875 27.6457C23.118 27.2059 23.3333 26.6805 23.3333 26.0694C23.3333 25.4583 23.1169 24.9328 22.6841 24.4928C22.2513 24.053 21.7259 23.8332 21.1079 23.8332C20.4895 23.8332 19.9605 24.0519 19.5208 24.4894C19.0811 24.9269 18.8612 25.4582 18.8612 26.0832C18.8612 26.6851 19.0794 27.2059 19.5158 27.6457C19.9525 28.0854 20.4826 28.3053 21.1062 28.3053ZM27.2916 9.44442H11.8195C11.3565 9.44442 11.0093 9.30025 10.7779 9.01192C10.5462 8.72359 10.4304 8.40637 10.4304 8.06025C10.4304 7.71442 10.5462 7.39567 10.7779 7.104C11.0093 6.81234 11.3565 6.6665 11.8195 6.6665H27.75C28.1711 6.6665 28.5572 6.78289 28.9083 7.01567C29.2594 7.24845 29.5168 7.56262 29.6804 7.95817L33.0137 15.9165C33.132 16.1734 33.215 16.4361 33.2625 16.7044C33.3097 16.973 33.3333 17.2475 33.3333 17.5278V30.1944C33.3333 30.5878 33.1997 30.9176 32.9325 31.184C32.6655 31.4501 32.3345 31.5832 31.9395 31.5832C31.5445 31.5832 31.2151 31.4501 30.9512 31.184C30.6873 30.9176 30.5554 30.5878 30.5554 30.1944V17.2498L27.2916 9.44442ZM32.3195 4.44442H16.9029C16.4398 4.44442 16.0926 4.30025 15.8612 4.01192C15.6295 3.72359 15.5137 3.40637 15.5137 3.06025C15.5137 2.71442 15.6295 2.39567 15.8612 2.104C16.0926 1.81234 16.4398 1.6665 16.9029 1.6665H32.7779C33.199 1.6665 33.5851 1.78289 33.9362 2.01567C34.287 2.24845 34.5444 2.56262 34.7083 2.95817L38.0137 10.8332C38.132 11.0901 38.215 11.3528 38.2625 11.6211C38.3097 11.8897 38.3333 12.1641 38.3333 12.4444V25.1111C38.3333 25.5044 38.1997 25.8343 37.9325 26.1007C37.6655 26.3668 37.3345 26.4998 36.9395 26.4998C36.5445 26.4998 36.2151 26.3668 35.9512 26.1007C35.6873 25.8343 35.5554 25.5044 35.5554 25.1111V12.1665L32.3195 4.44442Z" fill="#F8FAFC"/>
</g>
</svg>
