<svg width="40" height="40" viewBox="0 0 40 40" fill="none" xmlns="http://www.w3.org/2000/svg">
<mask id="mask0_264_5515" style="mask-type:alpha" maskUnits="userSpaceOnUse" x="0" y="0" width="40" height="40">
<rect width="40" height="40" fill="#D9D9D9"/>
</mask>
<g mask="url(#mask0_264_5515)">
<path d="M18.6388 24.6947V21.9168H21.4167V24.6947H18.6388ZM16.1113 10.0002H23.8888V6.11141H16.1113V10.0002ZM6.11129 35.0002C5.36129 35.0002 4.71074 34.7247 4.15962 34.1739C3.60879 33.6228 3.33337 32.9722 3.33337 32.2222V24.6947H15.8613V26.0835C15.8613 26.4771 15.9945 26.807 16.2609 27.0731C16.5273 27.3392 16.8574 27.4722 17.2513 27.4722H22.8121C23.206 27.4722 23.5349 27.3392 23.7988 27.0731C24.0627 26.807 24.1946 26.4771 24.1946 26.0835V24.6947H36.6667V32.2222C36.6667 32.9722 36.3913 33.6228 35.8405 34.1739C35.2894 34.7247 34.6388 35.0002 33.8888 35.0002H6.11129ZM3.33337 21.9168V12.7781C3.33337 12.0281 3.60879 11.3775 4.15962 10.8264C4.71074 10.2756 5.36129 10.0002 6.11129 10.0002H13.3334V6.11141C13.3334 5.36141 13.6088 4.71086 14.1596 4.15975C14.7107 3.60891 15.3613 3.3335 16.1113 3.3335H23.8888C24.6388 3.3335 25.2893 3.60891 25.8405 4.15975C26.3913 4.71086 26.6667 5.36141 26.6667 6.11141V10.0002H33.8888C34.6388 10.0002 35.2894 10.2756 35.8405 10.8264C36.3913 11.3775 36.6667 12.0281 36.6667 12.7781V21.9168H24.1946V20.5281C24.1946 20.1345 24.0613 19.8046 23.7946 19.5385C23.5282 19.2721 23.1981 19.1389 22.8042 19.1389H17.2438C16.8499 19.1389 16.521 19.2721 16.2571 19.5385C15.9932 19.8046 15.8613 20.1345 15.8613 20.5281V21.9168H3.33337Z" fill="#F8FAFC"/>
</g>
</svg>
