<svg width="24" height="30" viewBox="0 0 24 30" fill="none" xmlns="http://www.w3.org/2000/svg">
<path d="M12.0979 8.40344C10.9427 8.40344 9.15434 7.08991 7.27108 7.13739C4.78645 7.16904 2.50755 8.57751 1.22567 10.8089C-1.35392 15.2876 0.560992 21.9028 3.07728 25.5427C4.31168 27.3152 5.76764 29.3092 7.69838 29.2459C9.54998 29.1668 10.2463 28.0431 12.4936 28.0431C14.725 28.0431 15.358 29.2459 17.3204 29.1984C19.3145 29.1668 20.5805 27.3943 21.7991 25.606C23.2076 23.5487 23.7931 21.5546 23.8248 21.4438C23.7773 21.428 19.9475 19.9562 19.9 15.525C19.8684 11.8218 22.9227 10.0493 23.0651 9.97019C21.3243 7.42225 18.6498 7.13739 17.7161 7.07409C15.2789 6.88418 13.2374 8.40344 12.0979 8.40344ZM16.2126 4.66858C17.2413 3.43418 17.9218 1.70918 17.7319 0C16.2601 0.0633027 14.4876 0.981198 13.4273 2.2156C12.4778 3.30757 11.6548 5.06422 11.8764 6.74175C13.5064 6.86835 15.1839 5.90299 16.2126 4.66858Z" fill="url(#paint0_linear_301_6634)"/>
<defs>
<linearGradient id="paint0_linear_301_6634" x1="11.9124" y1="0" x2="11.9124" y2="29.2474" gradientUnits="userSpaceOnUse">
<stop stop-color="#4B86FF"/>
<stop offset="0.5" stop-color="#8640F5"/>
<stop offset="1" stop-color="#3213B7"/>
</linearGradient>
</defs>
</svg>
