<svg width="40" height="40" viewBox="0 0 40 40" fill="none" xmlns="http://www.w3.org/2000/svg">
<mask id="mask0_223_7199" style="mask-type:alpha" maskUnits="userSpaceOnUse" x="0" y="0" width="40" height="40">
<rect width="39.1111" height="39.1111" fill="#295BCC"/>
</mask>
<g mask="url(#mask0_223_7199)">
<path d="M18.2426 20.7779H24.4446C24.7909 20.7779 25.0811 20.6607 25.3152 20.4263C25.5496 20.1919 25.6668 19.9016 25.6668 19.5553C25.6668 19.2087 25.5496 18.9185 25.3152 18.6847C25.0811 18.4505 24.7909 18.3335 24.4446 18.3335H18.2426L20.4145 16.1616C20.6399 15.9394 20.7527 15.6567 20.7527 15.3134C20.7527 14.9701 20.6399 14.6856 20.4145 14.4598C20.1888 14.2344 19.9043 14.1217 19.561 14.1217C19.2177 14.1217 18.9349 14.2344 18.7128 14.4598L14.6481 18.5246C14.3534 18.8192 14.206 19.163 14.206 19.5557C14.206 19.9484 14.3534 20.2922 14.6481 20.5868L18.7128 24.6516C18.9385 24.877 19.222 24.9871 19.5634 24.982C19.9051 24.9768 20.1888 24.8614 20.4145 24.6357C20.6399 24.41 20.7527 24.1255 20.7527 23.7821C20.7527 23.4388 20.6399 23.1561 20.4145 22.9339L18.2426 20.7779ZM19.5586 35.0372C17.4172 35.0372 15.4045 34.6309 13.5204 33.8182C11.6362 33.0056 9.99738 31.9027 8.60377 30.5097C7.21017 29.1166 6.10677 27.4784 5.29359 25.5951C4.48068 23.7118 4.07422 21.6996 4.07422 19.5586C4.07422 17.4172 4.48054 15.4045 5.29318 13.5204C6.10582 11.6362 7.20868 9.99738 8.60174 8.60377C9.9948 7.21017 11.633 6.10677 13.5163 5.29359C15.3996 4.48068 17.4118 4.07422 19.5528 4.07422C21.6942 4.07422 23.7069 4.48054 25.591 5.29318C27.4752 6.10582 29.114 7.20868 30.5076 8.60174C31.9012 9.9948 33.0046 11.633 33.8178 13.5163C34.6307 15.3996 35.0372 17.4118 35.0372 19.5528C35.0372 21.6942 34.6309 23.7069 33.8182 25.591C33.0056 27.4752 31.9027 29.114 30.5097 30.5076C29.1166 31.9012 27.4784 33.0046 25.5951 33.8178C23.7118 34.6307 21.6996 35.0372 19.5586 35.0372Z" fill="url(#paint0_linear_223_7199)"/>
</g>
<defs>
<linearGradient id="paint0_linear_223_7199" x1="19.5557" y1="4.07422" x2="19.5557" y2="35.0372" gradientUnits="userSpaceOnUse">
<stop stop-color="#4B86FF"/>
<stop offset="0.5" stop-color="#8640F5"/>
<stop offset="1" stop-color="#3213B7"/>
</linearGradient>
</defs>
</svg>
