<svg width="32" height="32" viewBox="0 0 32 32" fill="none" xmlns="http://www.w3.org/2000/svg">
<path d="M8.41667 5.23324C10.4472 3.60896 13.0228 2.6377 15.8253 2.6377C18.6278 2.6377 21.2034 3.60896 23.234 5.23324L25.1507 3.31651L27.0158 5.18158L25.099 7.09831C26.7233 9.12885 27.6946 11.7045 27.6946 14.507V15.8258H3.95605V14.507C3.95605 11.7045 4.92732 9.12885 6.5516 7.09831L4.63487 5.18158L6.49994 3.31651L8.41667 5.23324ZM3.95605 18.4634H27.6946V27.695C27.6946 28.4234 27.1042 29.0138 26.3758 29.0138H5.27486C4.54651 29.0138 3.95605 28.4234 3.95605 27.695V18.4634ZM11.8689 11.8693C12.5972 11.8693 13.1877 11.2789 13.1877 10.5505C13.1877 9.82219 12.5972 9.23173 11.8689 9.23173C11.1405 9.23173 10.5501 9.82219 10.5501 10.5505C10.5501 11.2789 11.1405 11.8693 11.8689 11.8693ZM19.7817 11.8693C20.5101 11.8693 21.1005 11.2789 21.1005 10.5505C21.1005 9.82219 20.5101 9.23173 19.7817 9.23173C19.0534 9.23173 18.4629 9.82219 18.4629 10.5505C18.4629 11.2789 19.0534 11.8693 19.7817 11.8693Z" fill="url(#paint0_linear_301_6636)"/>
<defs>
<linearGradient id="paint0_linear_301_6636" x1="15.8253" y1="2.6377" x2="15.8253" y2="29.0138" gradientUnits="userSpaceOnUse">
<stop stop-color="#4B86FF"/>
<stop offset="0.5" stop-color="#8640F5"/>
<stop offset="1" stop-color="#3213B7"/>
</linearGradient>
</defs>
</svg>
