<svg width="40" height="40" viewBox="0 0 40 40" fill="none" xmlns="http://www.w3.org/2000/svg">
<mask id="mask0_223_7204" style="mask-type:alpha" maskUnits="userSpaceOnUse" x="0" y="0" width="40" height="40">
<rect width="39.1111" height="39.1111" fill="#295BCC"/>
</mask>
<g mask="url(#mask0_223_7204)">
<path d="M7.33398 30.9626V16.5465C7.33398 16.0802 7.43828 15.6384 7.64687 15.2212C7.85574 14.8038 8.14418 14.4601 8.51221 14.1901L17.7889 7.20142C18.3036 6.80868 18.8919 6.6123 19.5538 6.6123C20.2157 6.6123 20.8056 6.80868 21.3235 7.20142L30.6002 14.1901C30.9682 14.4601 31.2567 14.8038 31.4655 15.2212C31.6741 15.6384 31.7784 16.0802 31.7784 16.5465V30.9626C31.7784 31.6292 31.5377 32.2032 31.0561 32.6848C30.5745 33.1663 30.0005 33.4071 29.334 33.4071H24.1318C23.7143 33.4071 23.3645 33.2659 23.0823 32.9834C22.7998 32.7012 22.6586 32.3514 22.6586 31.9339V23.974C22.6586 23.5568 22.5175 23.207 22.2353 22.9245C21.9531 22.6423 21.6033 22.5012 21.1858 22.5012H17.9266C17.5091 22.5012 17.1593 22.6423 16.8771 22.9245C16.5949 23.207 16.4538 23.5568 16.4538 23.974V31.9339C16.4538 32.3514 16.3126 32.7012 16.0301 32.9834C15.7479 33.2659 15.3981 33.4071 14.9806 33.4071H9.77843C9.11191 33.4071 8.53787 33.1663 8.05632 32.6848C7.57476 32.2032 7.33398 31.6292 7.33398 30.9626Z" fill="url(#paint0_linear_223_7204)"/>
</g>
<defs>
<linearGradient id="paint0_linear_223_7204" x1="19.5562" y1="6.6123" x2="19.5562" y2="33.4071" gradientUnits="userSpaceOnUse">
<stop stop-color="#4B86FF"/>
<stop offset="0.5" stop-color="#8640F5"/>
<stop offset="1" stop-color="#3213B7"/>
</linearGradient>
</defs>
</svg>
