<svg width="40" height="40" viewBox="0 0 40 40" fill="none" xmlns="http://www.w3.org/2000/svg">
<mask id="mask0_264_5514" style="mask-type:alpha" maskUnits="userSpaceOnUse" x="0" y="0" width="40" height="40">
<rect width="40" height="40" fill="#D9D9D9"/>
</mask>
<g mask="url(#mask0_264_5514)">
<path d="M6.66662 32.2219V18.6528L4.44454 20.3611C4.12954 20.6016 3.7869 20.6941 3.41662 20.6386C3.04635 20.583 2.74079 20.3979 2.49996 20.0832C2.25912 19.7684 2.16649 19.4258 2.22204 19.0553C2.2776 18.685 2.45815 18.3794 2.76371 18.1386L6.66662 15.1665V11.6665C6.66662 11.2684 6.79857 10.9375 7.06246 10.6736C7.32635 10.4097 7.65732 10.2778 8.05537 10.2778C8.45371 10.2778 8.78482 10.4097 9.04871 10.6736C9.3126 10.9375 9.44454 11.2684 9.44454 11.6665V13.0415L18.3195 6.2915C18.5695 6.10623 18.8357 5.96275 19.1179 5.86109C19.4004 5.75914 19.6944 5.70817 20 5.70817C20.3055 5.70817 20.5995 5.75914 20.882 5.86109C21.1643 5.96275 21.4304 6.10623 21.6804 6.2915L37.2637 18.1665C37.5693 18.4073 37.7452 18.7129 37.7916 19.0832C37.838 19.4534 37.7408 19.7961 37.5 20.1111C37.2591 20.4166 36.9582 20.5925 36.597 20.6386C36.2359 20.685 35.9026 20.5878 35.597 20.3469L33.3333 18.6528V32.2219C33.3333 32.9905 33.0625 33.6457 32.5208 34.1873C31.9791 34.729 31.324 34.9998 30.5554 34.9998H22.0833C21.898 34.9998 21.7359 34.9304 21.597 34.7915C21.4582 34.6526 21.3887 34.4905 21.3887 34.3053V26.9444C21.3887 26.5461 21.2568 26.215 20.9929 25.9511C20.729 25.6872 20.398 25.5553 20 25.5553C19.6019 25.5553 19.2709 25.6872 19.007 25.9511C18.7432 26.215 18.6112 26.5461 18.6112 26.9444V34.3053C18.6112 34.4905 18.5418 34.6526 18.4029 34.7915C18.264 34.9304 18.1019 34.9998 17.9166 34.9998H9.44454C8.67593 34.9998 8.02079 34.729 7.47912 34.1873C6.93746 33.6457 6.66662 32.9905 6.66662 32.2219ZM8.36121 8.33317C7.87037 8.33317 7.47912 8.14331 7.18746 7.76359C6.89579 7.38414 6.84718 6.98137 7.04162 6.55526C7.40274 5.6572 7.97912 4.94192 8.77079 4.40942C9.56246 3.8772 10.4351 3.61109 11.3887 3.61109C11.7498 3.61109 12.0879 3.52081 12.4029 3.34025C12.7176 3.1597 12.9537 2.90275 13.1112 2.56942C13.2501 2.31942 13.4283 2.10637 13.6458 1.93025C13.8633 1.75442 14.1248 1.6665 14.4304 1.6665C14.9212 1.6665 15.3101 1.85636 15.597 2.23609C15.8843 2.61553 15.9307 3.01831 15.7362 3.44442C15.3565 4.34248 14.7754 5.05775 13.9929 5.59025C13.2107 6.12248 12.3426 6.38859 11.3887 6.38859C11.0276 6.38859 10.6943 6.48123 10.3887 6.6665C10.0832 6.85178 9.84246 7.10637 9.66662 7.43026C9.52774 7.68026 9.35176 7.89331 9.13871 8.06942C8.92593 8.24525 8.66676 8.33317 8.36121 8.33317Z" fill="url(#paint0_linear_264_5514)"/>
</g>
<defs>
<linearGradient id="paint0_linear_264_5514" x1="20.0046" y1="1.6665" x2="20.0046" y2="34.9998" gradientUnits="userSpaceOnUse">
<stop stop-color="#4B86FF"/>
<stop offset="0.5" stop-color="#8640F5"/>
<stop offset="1" stop-color="#3213B7"/>
</linearGradient>
</defs>
</svg>
