<svg width="40" height="40" viewBox="0 0 40 40" fill="none" xmlns="http://www.w3.org/2000/svg">
<mask id="mask0_264_5513" style="mask-type:alpha" maskUnits="userSpaceOnUse" x="0" y="0" width="40" height="40">
<rect width="40" height="40" fill="#D9D9D9"/>
</mask>
<g mask="url(#mask0_264_5513)">
<path d="M22.6804 37.3195C22.9304 37.3842 23.2059 37.4142 23.507 37.4095C23.8079 37.4051 24.0787 37.3658 24.3195 37.2916L36.6666 33.222C36.6666 31.9073 36.2732 30.8981 35.4862 30.1945C34.699 29.4906 33.6295 29.1387 32.2779 29.1387H23.6112C22.7501 29.1387 22.0741 29.0948 21.5833 29.007C21.0925 28.9189 20.6897 28.8239 20.375 28.722L17.8612 27.847C17.6759 27.7823 17.5462 27.6666 17.472 27.4999C17.3982 27.3333 17.389 27.1573 17.4445 26.972C17.5001 26.7962 17.6158 26.6666 17.7916 26.5833C17.9675 26.4999 18.148 26.4906 18.3333 26.5553L20.597 27.3195C21.0787 27.4862 21.5162 27.5995 21.9095 27.6595C22.3032 27.7198 22.7638 27.7499 23.2916 27.7499H26.7779C27.1018 27.7499 27.3772 27.6434 27.6041 27.4303C27.8311 27.2176 27.9445 26.9398 27.9445 26.597C27.9445 26.0414 27.757 25.4952 27.382 24.9583C27.007 24.4213 26.4769 24.0278 25.7916 23.7778L15.1387 19.7916C14.9815 19.736 14.8195 19.692 14.6529 19.6595C14.4862 19.6273 14.3241 19.6112 14.1666 19.6112H10.972V33.9862L22.6804 37.3195ZM1.66663 33.8887C1.66663 34.6573 1.93746 35.3124 2.47913 35.8541C3.02079 36.3958 3.67593 36.6666 4.44454 36.6666H5.38871C6.15732 36.6666 6.81246 36.3958 7.35413 35.8541C7.89579 35.3124 8.16663 34.6573 8.16663 33.8887V22.3887C8.16663 21.6203 7.89579 20.9653 7.35413 20.4237C6.81246 19.882 6.15732 19.6112 5.38871 19.6112H4.44454C3.67593 19.6112 3.02079 19.882 2.47913 20.4237C1.93746 20.9653 1.66663 21.6203 1.66663 22.3887V33.8887ZM26.8333 20.1112C26.4908 20.1112 26.1505 20.0439 25.8125 19.9095C25.4744 19.7753 25.1665 19.5833 24.8887 19.3333L19.972 14.5278C19.1295 13.7128 18.4236 12.8077 17.8541 11.8124C17.2847 10.8171 17 9.73145 17 8.55534C17 7.10172 17.5069 5.86797 18.5208 4.85409C19.5347 3.8402 20.7684 3.33325 22.222 3.33325C23.1482 3.33325 24.0001 3.55783 24.7779 4.007C25.5557 4.45589 26.2408 5.02756 26.8333 5.722C27.4258 5.02756 28.1109 4.45589 28.8887 4.007C29.6665 3.55783 30.5184 3.33325 31.4445 3.33325C32.8982 3.33325 34.1319 3.8402 35.1458 4.85409C36.1597 5.86797 36.6666 7.10172 36.6666 8.55534C36.6666 9.73145 36.3843 10.8171 35.8195 11.8124C35.2545 12.8077 34.5508 13.7128 33.7083 14.5278L28.7779 19.3333C28.5001 19.5833 28.1922 19.7753 27.8541 19.9095C27.5161 20.0439 27.1758 20.1112 26.8333 20.1112Z" fill="url(#paint0_linear_264_5513)"/>
</g>
<defs>
<linearGradient id="paint0_linear_264_5513" x1="19.1666" y1="3.33325" x2="19.1666" y2="37.41" gradientUnits="userSpaceOnUse">
<stop stop-color="#4B86FF"/>
<stop offset="0.5" stop-color="#8640F5"/>
<stop offset="1" stop-color="#3213B7"/>
</linearGradient>
</defs>
</svg>
