<svg width="40" height="40" viewBox="0 0 40 40" fill="none" xmlns="http://www.w3.org/2000/svg">
<mask id="mask0_264_5524" style="mask-type:alpha" maskUnits="userSpaceOnUse" x="0" y="0" width="40" height="40">
<rect width="40" height="40" fill="#D9D9D9"/>
</mask>
<g mask="url(#mask0_264_5524)">
<path d="M20 35.8333C16.3055 35.8333 13.1597 34.5581 10.5625 32.0078C7.96524 29.4578 6.66663 26.3534 6.66663 22.6945C6.66663 20.9445 7.0069 19.2709 7.68746 17.6737C8.36801 16.0764 9.33329 14.6574 10.5833 13.4166L18.0554 6.0695C18.3326 5.817 18.6384 5.62186 18.9729 5.48408C19.3076 5.34658 19.6482 5.27783 19.9945 5.27783C20.3407 5.27783 20.6825 5.34658 21.02 5.48408C21.3572 5.62186 21.6654 5.817 21.9445 6.0695L29.4166 13.4166C30.6666 14.6574 31.6319 16.0764 32.3125 17.6737C32.993 19.2709 33.3333 20.9445 33.3333 22.6945C33.3333 26.3612 32.0347 29.4676 29.4375 32.0137C26.8402 34.5601 23.6944 35.8333 20 35.8333Z" fill="url(#paint0_linear_264_5524)"/>
</g>
<defs>
<linearGradient id="paint0_linear_264_5524" x1="20" y1="5.27783" x2="20" y2="35.8333" gradientUnits="userSpaceOnUse">
<stop stop-color="#4B86FF"/>
<stop offset="0.5" stop-color="#8640F5"/>
<stop offset="1" stop-color="#3213B7"/>
</linearGradient>
</defs>
</svg>
