<svg width="40" height="40" viewBox="0 0 40 40" fill="none" xmlns="http://www.w3.org/2000/svg">
<mask id="mask0_264_5512" style="mask-type:alpha" maskUnits="userSpaceOnUse" x="0" y="0" width="40" height="40">
<rect width="40" height="40" fill="#D9D9D9"/>
</mask>
<g mask="url(#mask0_264_5512)">
<path d="M35.278 21.3888H31.6667C31.2731 21.3888 30.9432 21.2554 30.6771 20.9884C30.411 20.7212 30.278 20.3901 30.278 19.9951C30.278 19.6004 30.411 19.2711 30.6771 19.0072C30.9432 18.7433 31.2731 18.6113 31.6667 18.6113H35.278C35.6713 18.6113 36.0012 18.7448 36.2675 19.0117C36.5337 19.279 36.6667 19.6101 36.6667 20.0051C36.6667 20.3998 36.5337 20.7291 36.2675 20.993C36.0012 21.2569 35.6713 21.3888 35.278 21.3888ZM28.028 28.3888C28.2685 28.0741 28.5724 27.889 28.9396 27.8334C29.3068 27.7779 29.651 27.8705 29.9721 28.1113L32.8888 30.278C33.2038 30.5186 33.3891 30.8224 33.4446 31.1897C33.5002 31.5569 33.4075 31.9011 33.1667 32.2222C32.9259 32.5372 32.622 32.7224 32.255 32.778C31.8878 32.8336 31.5435 32.7409 31.2221 32.5001L28.3055 30.3334C27.9907 30.0926 27.8056 29.7887 27.75 29.4217C27.6945 29.0545 27.7871 28.7102 28.028 28.3888ZM32.8888 9.72216L30.0555 11.8613C29.7344 12.1019 29.3902 12.1944 29.023 12.1388C28.6557 12.0833 28.3518 11.8981 28.1113 11.5834C27.8705 11.2687 27.7778 10.9261 27.8334 10.5555C27.8889 10.1852 28.0741 9.87966 28.3888 9.63883L31.2221 7.50008C31.5435 7.25925 31.8878 7.16661 32.255 7.22216C32.622 7.27772 32.9259 7.463 33.1667 7.778C33.4075 8.09272 33.5002 8.43522 33.4446 8.8055C33.3891 9.17605 33.2038 9.48161 32.8888 9.72216ZM8.61129 25.0001H6.11129C5.3474 25.0001 4.69337 24.7281 4.14921 24.1842C3.60532 23.6401 3.33337 22.9861 3.33337 22.2222V17.778C3.33337 17.0141 3.60532 16.3601 4.14921 15.8159C4.69337 15.272 5.3474 15.0001 6.11129 15.0001H13.3334L19.5696 11.2501C20.0324 10.9723 20.4977 10.9717 20.9655 11.2484C21.433 11.5248 21.6667 11.9281 21.6667 12.4584V27.5417C21.6667 28.072 21.433 28.4754 20.9655 28.7517C20.4977 29.0284 20.0324 29.0279 19.5696 28.7501L13.3334 25.0001H11.3888V30.278C11.3888 30.6713 11.2553 31.0012 10.9884 31.2676C10.7212 31.5337 10.39 31.6667 9.99504 31.6667C9.60032 31.6667 9.27101 31.5337 9.00712 31.2676C8.74324 31.0012 8.61129 30.6713 8.61129 30.278V25.0001ZM23.3334 25.5834V14.4167C24.0834 15.0834 24.6875 15.8959 25.1459 16.8542C25.6042 17.8126 25.8334 18.8612 25.8334 20.0001C25.8334 21.139 25.6042 22.1876 25.1459 23.1459C24.6875 24.1042 24.0834 24.9167 23.3334 25.5834Z" fill="url(#paint0_linear_264_5512)"/>
</g>
<defs>
<linearGradient id="paint0_linear_264_5512" x1="20" y1="7.20654" x2="20" y2="32.7936" gradientUnits="userSpaceOnUse">
<stop stop-color="#4B86FF"/>
<stop offset="0.5" stop-color="#8640F5"/>
<stop offset="1" stop-color="#3213B7"/>
</linearGradient>
</defs>
</svg>
