<svg width="40" height="40" viewBox="0 0 40 40" fill="none" xmlns="http://www.w3.org/2000/svg">
<mask id="mask0_275_6203" style="mask-type:alpha" maskUnits="userSpaceOnUse" x="0" y="0" width="41" height="41">
<rect x="0.379272" y="0.034668" width="40" height="40" fill="#D9D9D9"/>
</mask>
<g mask="url(#mask0_275_6203)">
<path d="M18.1572 14.8126H28.7126C29.0923 14.8126 29.4187 14.6806 29.6918 14.4168C29.9648 14.1529 30.1013 13.8218 30.1013 13.4234C30.1013 13.044 29.9648 12.7176 29.6918 12.4443C29.4187 12.1712 29.0923 12.0347 28.7126 12.0347H18.1155C17.7358 12.0347 17.4163 12.1712 17.1572 12.4443C16.8977 12.7176 16.768 13.044 16.768 13.4234C16.768 13.8218 16.8999 14.1529 17.1638 14.4168C17.4277 14.6806 17.7588 14.8126 18.1572 14.8126ZM18.1572 20.368H23.6847C24.0644 20.368 24.3908 20.2361 24.6638 19.9722C24.9372 19.7083 25.0738 19.3773 25.0738 18.9793C25.0738 18.5995 24.9372 18.2731 24.6638 18.0001C24.3908 17.7268 24.0644 17.5901 23.6847 17.5901H18.1155C17.7358 17.5901 17.4163 17.7268 17.1572 18.0001C16.8977 18.2731 16.768 18.5995 16.768 18.9793C16.768 19.3773 16.8999 19.7083 17.1638 19.9722C17.4277 20.2361 17.7588 20.368 18.1572 20.368ZM9.85134 35.0763C9.10134 35.1783 8.43009 34.9977 7.83759 34.5347C7.24509 34.0716 6.88856 33.4559 6.768 32.6876L4.47634 16.0626C4.37467 15.3218 4.55759 14.6504 5.02509 14.0484C5.49259 13.4468 6.09675 13.0949 6.83759 12.993H6.9905V24.618C6.9905 26.1549 7.53217 27.4651 8.6155 28.5484C9.69884 29.6317 11.009 30.1734 12.5459 30.1734H32.268C32.1941 30.794 31.9465 31.3195 31.5251 31.7501C31.1037 32.1806 30.569 32.4376 29.9209 32.5209L9.85134 35.0763ZM12.6013 27.4234C11.8513 27.4234 11.2009 27.148 10.6501 26.5972C10.0993 26.0463 9.82384 25.3959 9.82384 24.6459V7.81258C9.82384 7.06258 10.0993 6.41203 10.6501 5.86092C11.2009 5.31009 11.8513 5.03467 12.6013 5.03467H34.268C35.018 5.03467 35.6686 5.31009 36.2197 5.86092C36.7705 6.41203 37.0459 7.06258 37.0459 7.81258V24.6459C37.0459 25.3959 36.7705 26.0463 36.2197 26.5972C35.6686 27.148 35.018 27.4234 34.268 27.4234H12.6013Z" fill="url(#paint0_linear_275_6203)"/>
</g>
<defs>
<linearGradient id="paint0_linear_275_6203" x1="20.7475" y1="5.03467" x2="20.7475" y2="35.1039" gradientUnits="userSpaceOnUse">
<stop stop-color="#4B86FF"/>
<stop offset="0.5" stop-color="#8640F5"/>
<stop offset="1" stop-color="#3213B7"/>
</linearGradient>
</defs>
</svg>
