<svg width="40" height="40" viewBox="0 0 40 40" fill="none" xmlns="http://www.w3.org/2000/svg">
<mask id="mask0_264_5522" style="mask-type:alpha" maskUnits="userSpaceOnUse" x="0" y="0" width="40" height="40">
<rect width="40" height="40" fill="#D9D9D9"/>
</mask>
<g mask="url(#mask0_264_5522)">
<path d="M11.25 36.6668C9.99996 36.6668 8.92357 36.2513 8.02079 35.4202C7.11801 34.5888 6.66663 33.5599 6.66663 32.3335V8.91683C6.66663 7.88794 6.98024 6.96725 7.60746 6.15475C8.23468 5.34253 9.05538 4.82808 10.0695 4.61141L22.7916 2.01391C23.6527 1.82891 24.4212 2.01544 25.097 2.5735C25.7732 3.13155 26.1112 3.85252 26.1112 4.73641V25.1668C26.1112 25.8271 25.9075 26.4135 25.5 26.926C25.0925 27.4385 24.5647 27.7642 23.9166 27.9031L10.847 30.6389C10.4462 30.7259 10.1123 30.9322 9.84538 31.2581C9.57815 31.5839 9.44454 31.9424 9.44454 32.3335C9.44454 32.7871 9.6251 33.1597 9.98621 33.4514C10.3473 33.7431 10.7686 33.8889 11.25 33.8889H30.5554V8.05558C30.5554 7.66225 30.689 7.33239 30.9562 7.066C31.2234 6.79989 31.5544 6.66683 31.9491 6.66683C32.3441 6.66683 32.6736 6.79989 32.9375 7.066C33.2013 7.33239 33.3333 7.66225 33.3333 8.05558V33.8889C33.3333 34.6528 33.0613 35.3068 32.5175 35.851C31.9733 36.3949 31.3193 36.6668 30.5554 36.6668H11.25ZM13.3375 27.3364C13.6605 27.2684 13.9258 27.1096 14.1333 26.8602C14.3408 26.611 14.4445 26.3197 14.4445 25.9864V8.25016C14.4445 7.81239 14.2755 7.4553 13.9375 7.17891C13.5994 6.90225 13.2113 6.80933 12.7733 6.90016C12.4505 6.96822 12.1854 7.12683 11.9779 7.376C11.7704 7.62544 11.6666 7.91683 11.6666 8.25016V25.9864C11.6666 26.4242 11.8357 26.7813 12.1737 27.0577C12.5115 27.3341 12.8994 27.427 13.3375 27.3364Z" fill="url(#paint0_linear_264_5522)"/>
</g>
<defs>
<linearGradient id="paint0_linear_264_5522" x1="20" y1="1.94482" x2="20" y2="36.6668" gradientUnits="userSpaceOnUse">
<stop stop-color="#4B86FF"/>
<stop offset="0.5" stop-color="#8640F5"/>
<stop offset="1" stop-color="#3213B7"/>
</linearGradient>
</defs>
</svg>
