<svg width="40" height="40" viewBox="0 0 40 40" fill="none" xmlns="http://www.w3.org/2000/svg">
<mask id="mask0_264_5525" style="mask-type:alpha" maskUnits="userSpaceOnUse" x="0" y="0" width="40" height="40">
<rect width="40" height="40" fill="#D9D9D9"/>
</mask>
<g mask="url(#mask0_264_5525)">
<path d="M20 35.0001C16.75 35.0001 13.9931 33.8682 11.7292 31.6043C9.46532 29.3404 8.33337 26.5835 8.33337 23.3335C8.33337 20.6112 9.15976 18.1969 10.8125 16.0905C12.4653 13.9839 14.6066 12.6158 17.2363 11.9864C16.301 11.8011 15.4792 11.433 14.7709 10.8822C14.0625 10.3311 13.4723 9.66206 13 8.87512C12.5278 8.08817 12.1806 7.21776 11.9584 6.26387C11.7362 5.31026 11.6435 4.33804 11.6805 3.3472C12.8566 3.26387 13.9677 3.41206 15.0138 3.79179C16.0602 4.17151 16.9907 4.71317 17.8055 5.41679C18.6205 6.1204 19.271 6.95831 19.7571 7.93054C20.2432 8.90276 20.4955 9.96762 20.5138 11.1251C20.8935 10.0418 21.4052 9.03026 22.0488 8.09053C22.6921 7.15053 23.4166 6.27776 24.2221 5.4722C24.4907 5.20387 24.8149 5.0697 25.1946 5.0697C25.5741 5.0697 25.8981 5.20387 26.1667 5.4722C26.4353 5.74081 26.5696 6.06498 26.5696 6.4447C26.5696 6.82415 26.4353 7.14817 26.1667 7.41679C25.5 8.08345 24.9028 8.80803 24.375 9.59053C23.8473 10.3728 23.4167 11.1991 23.0834 12.0697C25.6389 12.7733 27.7084 14.1644 29.2917 16.243C30.875 18.3219 31.6667 20.6854 31.6667 23.3335C31.6667 26.5835 30.5348 29.3404 28.2709 31.6043C26.007 33.8682 23.25 35.0001 20 35.0001Z" fill="url(#paint0_linear_264_5525)"/>
</g>
<defs>
<linearGradient id="paint0_linear_264_5525" x1="20" y1="3.32471" x2="20" y2="35.0001" gradientUnits="userSpaceOnUse">
<stop stop-color="#4B86FF"/>
<stop offset="0.5" stop-color="#8640F5"/>
<stop offset="1" stop-color="#3213B7"/>
</linearGradient>
</defs>
</svg>
